<?xml version="1.0" encoding="utf-8"?><!-- Uploaded to: SVG Repo, www.svgrepo.com, Generator: SVG Repo Mixer Tools -->
<svg version="1.1" id="Uploaded to svgrepo.com" xmlns="http://www.w3.org/2000/svg" xmlns:xlink="http://www.w3.org/1999/xlink" 
	 width="800px" height="800px" viewBox="0 0 32 32" xml:space="preserve">
<style type="text/css">
	.stone_een{fill:#0B1719;}
</style>
<path class="stone_een" d="M10.841,29.103C11.357,29.63,12,30.285,12,31.5c0,0.276-0.224,0.5-0.5,0.5S11,31.776,11,31.5
	c0-0.807-0.385-1.199-0.873-1.697C9.599,29.264,9,28.652,9,27.5c0-1.146,0.593-1.738,1.115-2.261
	c0.082-0.082,0.158-0.16,0.233-0.239h1.244c-0.227,0.383-0.51,0.687-0.77,0.947C10.363,26.406,10,26.769,10,27.5
	C10,28.244,10.371,28.623,10.841,29.103z M9,8C8.449,8,8,8.449,8,9s0.449,1,1,1s1-0.449,1-1S9.551,8,9,8z M21.652,21h-1.244
	c0.227,0.383,0.51,0.687,0.77,0.947C21.637,22.406,22,22.769,22,23.5c0,0.744-0.371,1.123-0.841,1.603
	C20.643,25.63,20,26.285,20,27.5c0,0.276,0.224,0.5,0.5,0.5s0.5-0.224,0.5-0.5c0-0.807,0.385-1.199,0.873-1.697
	C22.401,25.264,23,24.652,23,23.5c0-1.146-0.593-1.738-1.115-2.261C21.803,21.158,21.726,21.079,21.652,21z M20.5,0
	c-2.763,0-4.853,1.251-6.116,3.479C17.907,4.713,20,8.315,20,13.5c0,1.601-0.361,3.063-0.967,4.299l-0.431,0.646
	c-0.205,0.308-0.224,0.701-0.049,1.026C18.727,19.798,19.065,20,19.434,20h2.132c0.369,0,0.707-0.202,0.881-0.528
	c0.174-0.325,0.156-0.719-0.049-1.026l-0.431-0.646C25.051,16.996,28,13.863,28,9.5C28,3.552,25.196,0,20.5,0z M19,13.5
	c0,1.437-0.364,2.854-0.912,3.964c-1.108,2.25-3.082,3.804-5.121,4.335l0.431,0.646c0.205,0.308,0.224,0.701,0.049,1.026
	C13.273,23.798,12.935,24,12.566,24h-2.132c-0.369,0-0.707-0.202-0.881-0.528c-0.174-0.325-0.156-0.719,0.049-1.026l0.431-0.646
	C6.949,20.996,4,17.863,4,13.5C4,7.552,6.804,4,11.5,4c0.833,0,1.6,0.121,2.309,0.337C17.407,5.421,19,9.104,19,13.5z M11,9
	c0-1.105-0.895-2-2-2C7.895,7,7,7.895,7,9s0.895,2,2,2C10.105,11,11,10.105,11,9z"/>
</svg>